<?xml version="1.0" standalone="no"?>
<!DOCTYPE svg PUBLIC "-//W3C//DTD SVG 20010904//EN"
 "http://www.w3.org/TR/2001/REC-SVG-20010904/DTD/svg10.dtd">
<svg version="1.0" xmlns="http://www.w3.org/2000/svg"
 width="110.000000pt" height="132.000000pt" viewBox="0 0 110.000000 132.000000"
 preserveAspectRatio="xMidYMid meet">
<metadata>
Created by potrace 1.10, written by Peter Selinger 2001-2011
</metadata>
<g transform="translate(0.000000,132.000000) scale(0.100000,-0.100000)"
fill="#000000" stroke="none">
<path d="M423 1305 c-152 -33 -309 -156 -376 -296 -20 -41 -39 -85 -43 -99 -7
-25 -7 -25 15 -6 11 11 21 15 21 10 1 -16 24 30 28 55 3 23 46 93 86 138 28
32 141 120 132 103 -4 -8 -1 -7 7 3 8 9 18 17 23 17 5 0 22 7 37 15 15 8 25
10 22 6 -3 -5 6 -4 19 2 13 7 23 14 21 18 -2 3 2 6 10 6 8 0 15 -4 15 -9 0
-12 47 21 54 38 6 16 9 16 -71 -1z"/>
<path d="M595 1309 c-4 -5 -1 -8 7 -7 7 2 12 -3 11 -9 -2 -7 6 -13 16 -13 11
0 23 -5 26 -11 4 -6 13 -8 20 -5 7 2 24 -2 39 -9 14 -8 26 -12 26 -9 0 2 13
-2 30 -11 16 -8 32 -15 35 -15 4 1 14 -7 23 -18 9 -10 13 -11 7 -2 -6 10 -2 9
12 -4 13 -10 20 -24 16 -30 -3 -6 -3 -8 2 -4 10 9 77 -41 69 -53 -3 -5 3 -6
12 -2 11 4 15 2 11 -4 -4 -6 2 -18 13 -28 11 -10 17 -22 14 -26 -3 -5 2 -9 11
-9 9 0 13 -5 10 -11 -4 -5 0 -18 8 -27 24 -27 48 -82 42 -93 -4 -5 -3 -9 2 -8
22 4 34 -2 27 -13 -5 -10 -4 -10 5 -2 16 15 -18 106 -70 184 -86 127 -224 215
-386 244 -18 3 -35 1 -38 -5z"/>
<path d="M499 1029 c-20 -19 -33 -39 -31 -50 2 -11 -3 -22 -12 -25 -8 -3 -15
-13 -15 -22 -1 -42 -9 -65 -25 -74 -10 -6 -15 -16 -11 -27 6 -19 -18 -85 -27
-75 -3 3 -6 -1 -5 -8 1 -35 -4 -49 -15 -42 -7 5 -9 2 -5 -9 3 -8 -3 -33 -14
-54 -11 -21 -19 -45 -18 -53 2 -18 -10 -50 -27 -70 -7 -8 -13 -18 -13 -23 0
-4 -10 -28 -21 -54 -11 -26 -18 -53 -16 -59 3 -7 0 -14 -6 -16 -7 -3 -8 -18
-4 -43 l8 -40 33 85 c56 141 262 690 260 690 -2 0 -18 -14 -36 -31z"/>
<path d="M587 983 c14 -38 39 -107 57 -154 l31 -86 90 68 c91 70 125 84 125
52 -1 -11 -39 -46 -96 -87 -264 -193 -318 -243 -323 -299 -1 -5 33 20 74 54
44 36 79 58 84 53 5 -5 27 -61 51 -124 23 -63 45 -120 47 -126 2 -7 18 -14 34
-16 24 -4 29 -2 24 11 -4 9 -31 80 -60 158 l-53 142 58 46 c62 48 90 56 90 27
0 -11 -20 -33 -48 -52 l-49 -33 62 -163 c44 -114 59 -166 52 -173 -6 -6 -39
-11 -73 -11 l-62 0 -42 118 c-24 64 -46 121 -51 126 -4 4 -46 -24 -93 -64 -58
-48 -91 -70 -102 -66 -9 3 -14 12 -11 19 2 6 15 47 28 90 l23 79 86 65 c47 37
88 69 92 72 4 4 -11 56 -33 116 -22 61 -43 117 -46 125 -4 11 -8 8 -15 -10
-20 -53 -173 -461 -213 -567 -24 -62 -40 -113 -36 -113 4 0 24 21 46 47 21 26
32 44 23 40 -12 -4 -15 -2 -11 9 5 14 45 15 59 1 11 -11 44 -8 44 4 0 6 6 9
13 6 6 -2 22 7 35 20 13 14 27 21 35 17 6 -4 9 -3 4 1 -8 9 20 45 36 45 21 0
49 -45 44 -73 -2 -19 0 -26 9 -23 7 3 10 -2 7 -13 -2 -9 5 -25 16 -35 22 -20
29 -42 9 -30 -7 4 -8 3 -4 -5 4 -6 12 -8 18 -5 6 4 20 -4 30 -17 11 -13 17
-18 13 -11 -7 13 9 15 40 3 19 -8 72 15 99 42 15 15 14 65 -3 95 -7 13 -10 30
-7 38 3 8 -1 17 -9 20 -8 4 -15 17 -15 31 0 13 -4 21 -10 18 -6 -4 -10 6 -10
22 0 15 -7 36 -14 46 -14 18 -10 67 5 67 5 0 15 12 24 28 l15 27 -4 -28 c-3
-17 -1 -25 5 -21 6 3 8 9 5 12 -3 3 -2 10 3 16 16 19 17 91 2 82 -5 -3 -14 1
-21 9 -11 13 -10 14 3 10 8 -4 18 -1 23 6 5 8 3 10 -6 4 -9 -5 -11 -4 -6 3 4
7 17 12 29 12 18 0 19 2 7 10 -13 9 -7 14 13 11 4 0 7 5 7 12 0 8 3 7 9 -3 6
-8 7 -19 3 -25 -3 -5 2 -4 11 4 18 15 23 26 7 16 -13 -8 -13 11 0 36 7 12 7
19 1 19 -6 0 -8 8 -4 18 3 9 3 14 -2 10 -4 -4 -17 -1 -29 7 -24 17 -76 20 -76
4 0 -6 9 -8 23 -4 19 5 20 4 4 -5 -9 -6 -21 -9 -26 -6 -5 3 -22 -6 -38 -22
-17 -15 -41 -27 -56 -27 -14 1 -23 -3 -21 -7 3 -4 1 -8 -4 -8 -5 0 -15 21 -22
48 -7 26 -19 54 -25 62 -7 8 -11 25 -10 37 1 12 -2 20 -6 17 -4 -2 -11 6 -15
18 -7 22 -31 47 -46 48 -3 0 5 -30 19 -67z m1 -198 c4 -5 8 -23 10 -40 2 -23
-3 -34 -25 -48 -15 -11 -32 -18 -37 -17 -5 1 -12 -4 -17 -12 -5 -7 -13 -13
-19 -13 -6 0 -20 -11 -30 -25 l-19 -25 11 43 c8 30 14 40 22 33 9 -8 11 -1 8
26 -4 34 14 85 43 120 10 12 15 8 53 -42z"/>
<path d="M1078 427 c-8 -9 -18 -14 -22 -12 -3 3 -4 2 -1 -2 3 -3 -1 -13 -8
-21 -10 -13 -9 -14 2 -7 10 5 8 -2 -5 -21 -11 -16 -25 -41 -32 -56 -6 -16 -16
-28 -22 -28 -5 0 -10 -5 -10 -12 0 -20 -44 -78 -63 -84 -10 -3 -16 -9 -12 -12
7 -8 -106 -72 -117 -66 -4 3 -5 -2 -2 -11 4 -11 2 -14 -9 -9 -8 3 -18 1 -21
-5 -4 -6 -14 -7 -23 -4 -9 4 -14 2 -10 -3 3 -6 -13 -15 -36 -21 -23 -7 -53
-21 -66 -32 l-24 -21 34 6 c213 38 378 170 449 361 23 62 22 84 -2 60z"/>
<path d="M5 408 c3 -13 22 -57 42 -98 76 -157 233 -270 422 -304 33 -6 34 -5
17 12 -14 17 -83 45 -111 47 -18 1 -35 16 -30 26 3 5 -2 6 -11 2 -11 -4 -15
-3 -11 4 4 7 0 10 -10 8 -23 -3 -93 36 -93 53 0 7 -4 11 -8 8 -16 -10 -132
134 -132 163 0 6 -4 11 -8 11 -5 0 -9 7 -10 15 -1 8 -3 22 -4 30 -1 8 -7 15
-15 15 -7 0 -13 7 -13 15 0 8 -7 15 -16 15 -11 0 -14 -6 -9 -22z"/>
</g>
</svg>
